<svg xmlns="http://www.w3.org/2000/svg" xmlns:xlink="http://www.w3.org/1999/xlink" width="200" zoomAndPan="magnify" viewBox="0 0 150 52.499999" height="70" preserveAspectRatio="xMidYMid meet" version="1.0"><defs><g/><clipPath id="46021d53d0"><path d="M 33.257812 23.261719 L 120.179688 23.261719 L 120.179688 34.40625 L 33.257812 34.40625 Z M 33.257812 23.261719 " clip-rule="nonzero"/></clipPath></defs><g fill="#000000" fill-opacity="1"><g transform="translate(34.783474, 50.236962)"><g><path d="M 25.6875 0 C 28.371094 0 31.003906 -0.472656 33.421875 -1.367188 C 38.214844 -2.789062 40.53125 -2.578125 40.738281 -0.472656 L 41.214844 -0.472656 L 41.214844 -16.054688 L 40.738281 -16.054688 L 40.738281 -15.316406 C 40.582031 -6.261719 34.527344 -0.472656 25.6875 -0.472656 C 22.421875 -0.472656 13.421875 -2.789062 13.371094 -23.054688 C 13.421875 -43.320312 22.421875 -45.636719 25.6875 -45.636719 C 33.214844 -45.636719 40.425781 -40.949219 40.738281 -33.214844 L 41.214844 -33.214844 L 41.214844 -45.636719 L 40.738281 -45.636719 C 40.53125 -43.636719 38.425781 -43.265625 33.421875 -44.742188 C 31.003906 -45.636719 28.371094 -46.109375 25.6875 -46.109375 C 19.527344 -46.109375 13.738281 -43.6875 9.421875 -39.371094 L 9.265625 -39.214844 C 5.472656 -35.371094 3 -30.160156 2.632812 -24.421875 L 2.632812 -21.792969 C 3.316406 -9.578125 13.476562 0 25.6875 0 Z M 25.6875 0 "/></g></g></g><g fill="#000000" fill-opacity="1"><g transform="translate(78.62744, 50.236962)"><g><path d="M 2.683594 0 L 3.15625 0 L 3.15625 -0.0507812 C 3.15625 -2.367188 3.578125 -4 10.683594 -1.261719 C 17.371094 1.261719 26.84375 0.632812 31.316406 -3.84375 C 33.421875 -5.949219 35.003906 -9.738281 35.003906 -12.789062 C 35.003906 -22.054688 27.582031 -23.792969 18.949219 -29.109375 C 13.894531 -32.214844 11.472656 -34.6875 11.472656 -38.265625 C 11.472656 -42.214844 13.421875 -45.265625 19.582031 -45.265625 C 22 -45.265625 24.265625 -44.636719 26.105469 -43.582031 C 30.84375 -40.53125 31.109375 -31.792969 31.109375 -31.792969 L 31.582031 -31.792969 L 31.582031 -44.265625 L 31.109375 -44.265625 L 31.109375 -44.054688 C 30.898438 -42.054688 26.738281 -43.792969 24.949219 -44.6875 C 23.316406 -45.476562 21.476562 -45.742188 19.582031 -45.742188 C 13.265625 -45.742188 7.160156 -42.320312 4.738281 -36.84375 C 2.054688 -30.84375 4.578125 -27.105469 12.476562 -21.210938 C 18.210938 -16.949219 29.160156 -13.421875 28.949219 -7.527344 C 28.792969 -3.578125 25.949219 -0.210938 18.316406 -0.210938 C 10.578125 -0.210938 3.15625 -7.054688 3.15625 -13.84375 L 3.15625 -15.054688 L 2.683594 -15.054688 Z M 2.683594 0 "/></g></g></g><g clip-path="url(#46021d53d0)"><path fill="#ffffff" d="M 33.261719 23.261719 L 120.175781 23.261719 L 120.175781 34.40625 L 33.261719 34.40625 L 33.261719 23.261719 " fill-opacity="1" fill-rule="nonzero"/></g><g fill="#000000" fill-opacity="1"><g transform="translate(18.072808, 30.834699)"><g><path d="M 2.59375 0.03125 C 2.15625 0.03125 1.765625 -0.0625 1.421875 -0.25 C 1.078125 -0.4375 0.804688 -0.695312 0.609375 -1.03125 C 0.421875 -1.375 0.328125 -1.753906 0.328125 -2.171875 C 0.328125 -2.585938 0.421875 -2.960938 0.609375 -3.296875 C 0.804688 -3.628906 1.078125 -3.890625 1.421875 -4.078125 C 1.773438 -4.273438 2.164062 -4.375 2.59375 -4.375 C 2.914062 -4.375 3.210938 -4.316406 3.484375 -4.203125 C 3.753906 -4.097656 3.984375 -3.941406 4.171875 -3.734375 L 3.890625 -3.453125 C 3.546875 -3.785156 3.117188 -3.953125 2.609375 -3.953125 C 2.265625 -3.953125 1.953125 -3.875 1.671875 -3.71875 C 1.390625 -3.5625 1.164062 -3.347656 1 -3.078125 C 0.84375 -2.804688 0.765625 -2.503906 0.765625 -2.171875 C 0.765625 -1.828125 0.84375 -1.519531 1 -1.25 C 1.164062 -0.976562 1.390625 -0.765625 1.671875 -0.609375 C 1.953125 -0.453125 2.265625 -0.375 2.609375 -0.375 C 3.128906 -0.375 3.554688 -0.546875 3.890625 -0.890625 L 4.171875 -0.59375 C 3.984375 -0.394531 3.75 -0.238281 3.46875 -0.125 C 3.195312 -0.0195312 2.90625 0.03125 2.59375 0.03125 Z M 2.59375 0.03125 "/></g></g></g><g fill="#000000" fill-opacity="1"><g transform="translate(23.68902, 30.834699)"><g><path d="M 4.328125 -4.328125 L 4.328125 0 L 3.875 0 L 3.875 -2 L 1.15625 -2 L 1.15625 0 L 0.703125 0 L 0.703125 -4.328125 L 1.15625 -4.328125 L 1.15625 -2.40625 L 3.875 -2.40625 L 3.875 -4.328125 Z M 4.328125 -4.328125 "/></g></g></g><g fill="#000000" fill-opacity="1"><g transform="translate(29.886529, 30.834699)"><g><path d="M 3.65625 0 L 2.671875 -1.390625 C 2.554688 -1.378906 2.441406 -1.375 2.328125 -1.375 L 1.15625 -1.375 L 1.15625 0 L 0.703125 0 L 0.703125 -4.328125 L 2.328125 -4.328125 C 2.878906 -4.328125 3.3125 -4.195312 3.625 -3.9375 C 3.9375 -3.675781 4.09375 -3.3125 4.09375 -2.84375 C 4.09375 -2.507812 4.003906 -2.222656 3.828125 -1.984375 C 3.660156 -1.753906 3.421875 -1.585938 3.109375 -1.484375 L 4.171875 0 Z M 2.3125 -1.765625 C 2.738281 -1.765625 3.066406 -1.859375 3.296875 -2.046875 C 3.523438 -2.234375 3.640625 -2.5 3.640625 -2.84375 C 3.640625 -3.195312 3.523438 -3.46875 3.296875 -3.65625 C 3.066406 -3.84375 2.738281 -3.9375 2.3125 -3.9375 L 1.15625 -3.9375 L 1.15625 -1.765625 Z M 2.3125 -1.765625 "/></g></g></g><g fill="#000000" fill-opacity="1"><g transform="translate(35.527479, 30.834699)"><g><path d="M 0.703125 -4.328125 L 1.15625 -4.328125 L 1.15625 0 L 0.703125 0 Z M 0.703125 -4.328125 "/></g></g></g><g fill="#000000" fill-opacity="1"><g transform="translate(38.564934, 30.834699)"><g><path d="M 1.90625 0.03125 C 1.582031 0.03125 1.269531 -0.015625 0.96875 -0.109375 C 0.675781 -0.210938 0.453125 -0.351562 0.296875 -0.53125 L 0.46875 -0.875 C 0.625 -0.71875 0.832031 -0.59375 1.09375 -0.5 C 1.351562 -0.40625 1.625 -0.359375 1.90625 -0.359375 C 2.289062 -0.359375 2.578125 -0.425781 2.765625 -0.5625 C 2.960938 -0.707031 3.0625 -0.894531 3.0625 -1.125 C 3.0625 -1.289062 3.007812 -1.425781 2.90625 -1.53125 C 2.800781 -1.632812 2.671875 -1.710938 2.515625 -1.765625 C 2.367188 -1.828125 2.15625 -1.890625 1.875 -1.953125 C 1.550781 -2.035156 1.289062 -2.113281 1.09375 -2.1875 C 0.90625 -2.269531 0.738281 -2.390625 0.59375 -2.546875 C 0.457031 -2.703125 0.390625 -2.914062 0.390625 -3.1875 C 0.390625 -3.40625 0.445312 -3.601562 0.5625 -3.78125 C 0.6875 -3.957031 0.863281 -4.097656 1.09375 -4.203125 C 1.332031 -4.316406 1.632812 -4.375 2 -4.375 C 2.238281 -4.375 2.476562 -4.335938 2.71875 -4.265625 C 2.957031 -4.203125 3.160156 -4.109375 3.328125 -3.984375 L 3.1875 -3.625 C 3 -3.738281 2.800781 -3.828125 2.59375 -3.890625 C 2.394531 -3.953125 2.195312 -3.984375 2 -3.984375 C 1.613281 -3.984375 1.320312 -3.910156 1.125 -3.765625 C 0.9375 -3.617188 0.84375 -3.425781 0.84375 -3.1875 C 0.84375 -3.019531 0.894531 -2.882812 1 -2.78125 C 1.101562 -2.675781 1.234375 -2.59375 1.390625 -2.53125 C 1.554688 -2.476562 1.773438 -2.414062 2.046875 -2.34375 C 2.359375 -2.269531 2.613281 -2.191406 2.8125 -2.109375 C 3.007812 -2.035156 3.175781 -1.921875 3.3125 -1.765625 C 3.445312 -1.617188 3.515625 -1.410156 3.515625 -1.140625 C 3.515625 -0.921875 3.453125 -0.722656 3.328125 -0.546875 C 3.210938 -0.367188 3.035156 -0.226562 2.796875 -0.125 C 2.554688 -0.0195312 2.257812 0.03125 1.90625 0.03125 Z M 1.90625 0.03125 "/></g></g></g><g fill="#000000" fill-opacity="1"><g transform="translate(43.538001, 30.834699)"><g><path d="M 1.546875 -3.9375 L 0.03125 -3.9375 L 0.03125 -4.328125 L 3.53125 -4.328125 L 3.53125 -3.9375 L 2 -3.9375 L 2 0 L 1.546875 0 Z M 1.546875 -3.9375 "/></g></g></g><g fill="#000000" fill-opacity="1"><g transform="translate(48.257523, 30.834699)"><g><path d="M 2.59375 0.03125 C 2.164062 0.03125 1.773438 -0.0625 1.421875 -0.25 C 1.078125 -0.4375 0.804688 -0.695312 0.609375 -1.03125 C 0.421875 -1.375 0.328125 -1.753906 0.328125 -2.171875 C 0.328125 -2.585938 0.421875 -2.960938 0.609375 -3.296875 C 0.804688 -3.628906 1.078125 -3.890625 1.421875 -4.078125 C 1.773438 -4.273438 2.164062 -4.375 2.59375 -4.375 C 3.03125 -4.375 3.421875 -4.273438 3.765625 -4.078125 C 4.109375 -3.890625 4.378906 -3.628906 4.578125 -3.296875 C 4.773438 -2.960938 4.875 -2.585938 4.875 -2.171875 C 4.875 -1.753906 4.773438 -1.375 4.578125 -1.03125 C 4.378906 -0.695312 4.109375 -0.4375 3.765625 -0.25 C 3.421875 -0.0625 3.03125 0.03125 2.59375 0.03125 Z M 2.59375 -0.375 C 2.9375 -0.375 3.242188 -0.445312 3.515625 -0.59375 C 3.796875 -0.75 4.015625 -0.960938 4.171875 -1.234375 C 4.328125 -1.515625 4.40625 -1.828125 4.40625 -2.171875 C 4.40625 -2.503906 4.328125 -2.804688 4.171875 -3.078125 C 4.015625 -3.359375 3.796875 -3.570312 3.515625 -3.71875 C 3.242188 -3.875 2.9375 -3.953125 2.59375 -3.953125 C 2.25 -3.953125 1.9375 -3.875 1.65625 -3.71875 C 1.382812 -3.570312 1.164062 -3.359375 1 -3.078125 C 0.84375 -2.804688 0.765625 -2.503906 0.765625 -2.171875 C 0.765625 -1.828125 0.84375 -1.515625 1 -1.234375 C 1.164062 -0.960938 1.382812 -0.75 1.65625 -0.59375 C 1.9375 -0.445312 2.25 -0.375 2.59375 -0.375 Z M 2.59375 -0.375 "/></g></g></g><g fill="#000000" fill-opacity="1"><g transform="translate(54.615819, 30.834699)"><g><path d="M 2.328125 -4.328125 C 2.878906 -4.328125 3.3125 -4.195312 3.625 -3.9375 C 3.9375 -3.675781 4.09375 -3.3125 4.09375 -2.84375 C 4.09375 -2.382812 3.9375 -2.023438 3.625 -1.765625 C 3.3125 -1.503906 2.878906 -1.375 2.328125 -1.375 L 1.15625 -1.375 L 1.15625 0 L 0.703125 0 L 0.703125 -4.328125 Z M 2.3125 -1.765625 C 2.738281 -1.765625 3.066406 -1.859375 3.296875 -2.046875 C 3.523438 -2.234375 3.640625 -2.5 3.640625 -2.84375 C 3.640625 -3.195312 3.523438 -3.46875 3.296875 -3.65625 C 3.066406 -3.84375 2.738281 -3.9375 2.3125 -3.9375 L 1.15625 -3.9375 L 1.15625 -1.765625 Z M 2.3125 -1.765625 "/></g></g></g><g fill="#000000" fill-opacity="1"><g transform="translate(60.225846, 30.834699)"><g><path d="M 4.328125 -4.328125 L 4.328125 0 L 3.875 0 L 3.875 -2 L 1.15625 -2 L 1.15625 0 L 0.703125 0 L 0.703125 -4.328125 L 1.15625 -4.328125 L 1.15625 -2.40625 L 3.875 -2.40625 L 3.875 -4.328125 Z M 4.328125 -4.328125 "/></g></g></g><g fill="#000000" fill-opacity="1"><g transform="translate(66.423357, 30.834699)"><g/></g></g><g fill="#000000" fill-opacity="1"><g transform="translate(69.213451, 30.834699)"><g><path d="M 1.90625 0.03125 C 1.582031 0.03125 1.269531 -0.015625 0.96875 -0.109375 C 0.675781 -0.210938 0.453125 -0.351562 0.296875 -0.53125 L 0.46875 -0.875 C 0.625 -0.71875 0.832031 -0.59375 1.09375 -0.5 C 1.351562 -0.40625 1.625 -0.359375 1.90625 -0.359375 C 2.289062 -0.359375 2.578125 -0.425781 2.765625 -0.5625 C 2.960938 -0.707031 3.0625 -0.894531 3.0625 -1.125 C 3.0625 -1.289062 3.007812 -1.425781 2.90625 -1.53125 C 2.800781 -1.632812 2.671875 -1.710938 2.515625 -1.765625 C 2.367188 -1.828125 2.15625 -1.890625 1.875 -1.953125 C 1.550781 -2.035156 1.289062 -2.113281 1.09375 -2.1875 C 0.90625 -2.269531 0.738281 -2.390625 0.59375 -2.546875 C 0.457031 -2.703125 0.390625 -2.914062 0.390625 -3.1875 C 0.390625 -3.40625 0.445312 -3.601562 0.5625 -3.78125 C 0.6875 -3.957031 0.863281 -4.097656 1.09375 -4.203125 C 1.332031 -4.316406 1.632812 -4.375 2 -4.375 C 2.238281 -4.375 2.476562 -4.335938 2.71875 -4.265625 C 2.957031 -4.203125 3.160156 -4.109375 3.328125 -3.984375 L 3.1875 -3.625 C 3 -3.738281 2.800781 -3.828125 2.59375 -3.890625 C 2.394531 -3.953125 2.195312 -3.984375 2 -3.984375 C 1.613281 -3.984375 1.320312 -3.910156 1.125 -3.765625 C 0.9375 -3.617188 0.84375 -3.425781 0.84375 -3.1875 C 0.84375 -3.019531 0.894531 -2.882812 1 -2.78125 C 1.101562 -2.675781 1.234375 -2.59375 1.390625 -2.53125 C 1.554688 -2.476562 1.773438 -2.414062 2.046875 -2.34375 C 2.359375 -2.269531 2.613281 -2.191406 2.8125 -2.109375 C 3.007812 -2.035156 3.175781 -1.921875 3.3125 -1.765625 C 3.445312 -1.617188 3.515625 -1.410156 3.515625 -1.140625 C 3.515625 -0.921875 3.453125 -0.722656 3.328125 -0.546875 C 3.210938 -0.367188 3.035156 -0.226562 2.796875 -0.125 C 2.554688 -0.0195312 2.257812 0.03125 1.90625 0.03125 Z M 1.90625 0.03125 "/></g></g></g><g fill="#000000" fill-opacity="1"><g transform="translate(74.186518, 30.834699)"><g><path d="M 2.59375 0.03125 C 2.15625 0.03125 1.765625 -0.0625 1.421875 -0.25 C 1.078125 -0.4375 0.804688 -0.695312 0.609375 -1.03125 C 0.421875 -1.375 0.328125 -1.753906 0.328125 -2.171875 C 0.328125 -2.585938 0.421875 -2.960938 0.609375 -3.296875 C 0.804688 -3.628906 1.078125 -3.890625 1.421875 -4.078125 C 1.773438 -4.273438 2.164062 -4.375 2.59375 -4.375 C 2.914062 -4.375 3.210938 -4.316406 3.484375 -4.203125 C 3.753906 -4.097656 3.984375 -3.941406 4.171875 -3.734375 L 3.890625 -3.453125 C 3.546875 -3.785156 3.117188 -3.953125 2.609375 -3.953125 C 2.265625 -3.953125 1.953125 -3.875 1.671875 -3.71875 C 1.390625 -3.5625 1.164062 -3.347656 1 -3.078125 C 0.84375 -2.804688 0.765625 -2.503906 0.765625 -2.171875 C 0.765625 -1.828125 0.84375 -1.519531 1 -1.25 C 1.164062 -0.976562 1.390625 -0.765625 1.671875 -0.609375 C 1.953125 -0.453125 2.265625 -0.375 2.609375 -0.375 C 3.128906 -0.375 3.554688 -0.546875 3.890625 -0.890625 L 4.171875 -0.59375 C 3.984375 -0.394531 3.75 -0.238281 3.46875 -0.125 C 3.195312 -0.0195312 2.90625 0.03125 2.59375 0.03125 Z M 2.59375 0.03125 "/></g></g></g><g fill="#000000" fill-opacity="1"><g transform="translate(79.802727, 30.834699)"><g><path d="M 4.328125 -4.328125 L 4.328125 0 L 3.875 0 L 3.875 -2 L 1.15625 -2 L 1.15625 0 L 0.703125 0 L 0.703125 -4.328125 L 1.15625 -4.328125 L 1.15625 -2.40625 L 3.875 -2.40625 L 3.875 -4.328125 Z M 4.328125 -4.328125 "/></g></g></g><g fill="#000000" fill-opacity="1"><g transform="translate(86.000235, 30.834699)"><g><path d="M 6.65625 -4.328125 L 5.1875 0 L 4.703125 0 L 3.4375 -3.6875 L 2.171875 0 L 1.6875 0 L 0.234375 -4.328125 L 0.703125 -4.328125 L 1.953125 -0.609375 L 3.25 -4.328125 L 3.671875 -4.328125 L 4.9375 -0.59375 L 6.21875 -4.328125 Z M 6.65625 -4.328125 "/></g></g></g><g fill="#000000" fill-opacity="1"><g transform="translate(94.040594, 30.834699)"><g><path d="M 3.421875 -1.15625 L 1.015625 -1.15625 L 0.484375 0 L 0.015625 0 L 2 -4.328125 L 2.4375 -4.328125 L 4.421875 0 L 3.9375 0 Z M 3.25 -1.53125 L 2.21875 -3.859375 L 1.171875 -1.53125 Z M 3.25 -1.53125 "/></g></g></g><g fill="#000000" fill-opacity="1"><g transform="translate(99.644434, 30.834699)"><g><path d="M 3.65625 0 L 2.671875 -1.390625 C 2.554688 -1.378906 2.441406 -1.375 2.328125 -1.375 L 1.15625 -1.375 L 1.15625 0 L 0.703125 0 L 0.703125 -4.328125 L 2.328125 -4.328125 C 2.878906 -4.328125 3.3125 -4.195312 3.625 -3.9375 C 3.9375 -3.675781 4.09375 -3.3125 4.09375 -2.84375 C 4.09375 -2.507812 4.003906 -2.222656 3.828125 -1.984375 C 3.660156 -1.753906 3.421875 -1.585938 3.109375 -1.484375 L 4.171875 0 Z M 2.3125 -1.765625 C 2.738281 -1.765625 3.066406 -1.859375 3.296875 -2.046875 C 3.523438 -2.234375 3.640625 -2.5 3.640625 -2.84375 C 3.640625 -3.195312 3.523438 -3.46875 3.296875 -3.65625 C 3.066406 -3.84375 2.738281 -3.9375 2.3125 -3.9375 L 1.15625 -3.9375 L 1.15625 -1.765625 Z M 2.3125 -1.765625 "/></g></g></g><g fill="#000000" fill-opacity="1"><g transform="translate(105.285382, 30.834699)"><g><path d="M 3.828125 -0.390625 L 3.828125 0 L 0.28125 0 L 0.28125 -0.3125 L 3.15625 -3.9375 L 0.328125 -3.9375 L 0.328125 -4.328125 L 3.75 -4.328125 L 3.75 -4.015625 L 0.890625 -0.390625 Z M 3.828125 -0.390625 "/></g></g></g><g fill="#000000" fill-opacity="1"><g transform="translate(110.481078, 30.834699)"><g><path d="M 2.046875 -2.03125 L 1.15625 -1.140625 L 1.15625 0 L 0.703125 0 L 0.703125 -4.328125 L 1.15625 -4.328125 L 1.15625 -1.71875 L 3.703125 -4.328125 L 4.234375 -4.328125 L 2.359375 -2.375 L 4.359375 0 L 3.8125 0 Z M 2.046875 -2.03125 "/></g></g></g><g fill="#000000" fill-opacity="1"><g transform="translate(116.047812, 30.834699)"><g><path d="M 2.59375 0.03125 C 2.164062 0.03125 1.773438 -0.0625 1.421875 -0.25 C 1.078125 -0.4375 0.804688 -0.695312 0.609375 -1.03125 C 0.421875 -1.375 0.328125 -1.753906 0.328125 -2.171875 C 0.328125 -2.585938 0.421875 -2.960938 0.609375 -3.296875 C 0.804688 -3.628906 1.078125 -3.890625 1.421875 -4.078125 C 1.773438 -4.273438 2.164062 -4.375 2.59375 -4.375 C 3.03125 -4.375 3.421875 -4.273438 3.765625 -4.078125 C 4.109375 -3.890625 4.378906 -3.628906 4.578125 -3.296875 C 4.773438 -2.960938 4.875 -2.585938 4.875 -2.171875 C 4.875 -1.753906 4.773438 -1.375 4.578125 -1.03125 C 4.378906 -0.695312 4.109375 -0.4375 3.765625 -0.25 C 3.421875 -0.0625 3.03125 0.03125 2.59375 0.03125 Z M 2.59375 -0.375 C 2.9375 -0.375 3.242188 -0.445312 3.515625 -0.59375 C 3.796875 -0.75 4.015625 -0.960938 4.171875 -1.234375 C 4.328125 -1.515625 4.40625 -1.828125 4.40625 -2.171875 C 4.40625 -2.503906 4.328125 -2.804688 4.171875 -3.078125 C 4.015625 -3.359375 3.796875 -3.570312 3.515625 -3.71875 C 3.242188 -3.875 2.9375 -3.953125 2.59375 -3.953125 C 2.25 -3.953125 1.9375 -3.875 1.65625 -3.71875 C 1.382812 -3.570312 1.164062 -3.359375 1 -3.078125 C 0.84375 -2.804688 0.765625 -2.503906 0.765625 -2.171875 C 0.765625 -1.828125 0.84375 -1.515625 1 -1.234375 C 1.164062 -0.960938 1.382812 -0.75 1.65625 -0.59375 C 1.9375 -0.445312 2.25 -0.375 2.59375 -0.375 Z M 2.59375 -0.375 "/></g></g></g><g fill="#000000" fill-opacity="1"><g transform="translate(122.406105, 30.834699)"><g><path d="M 2.328125 -4.328125 C 2.878906 -4.328125 3.3125 -4.195312 3.625 -3.9375 C 3.9375 -3.675781 4.09375 -3.3125 4.09375 -2.84375 C 4.09375 -2.382812 3.9375 -2.023438 3.625 -1.765625 C 3.3125 -1.503906 2.878906 -1.375 2.328125 -1.375 L 1.15625 -1.375 L 1.15625 0 L 0.703125 0 L 0.703125 -4.328125 Z M 2.3125 -1.765625 C 2.738281 -1.765625 3.066406 -1.859375 3.296875 -2.046875 C 3.523438 -2.234375 3.640625 -2.5 3.640625 -2.84375 C 3.640625 -3.195312 3.523438 -3.46875 3.296875 -3.65625 C 3.066406 -3.84375 2.738281 -3.9375 2.3125 -3.9375 L 1.15625 -3.9375 L 1.15625 -1.765625 Z M 2.3125 -1.765625 "/></g></g></g><g fill="#000000" fill-opacity="1"><g transform="translate(128.016135, 30.834699)"><g><path d="M 1.15625 -3.9375 L 1.15625 -2.234375 L 3.40625 -2.234375 L 3.40625 -1.84375 L 1.15625 -1.84375 L 1.15625 0 L 0.703125 0 L 0.703125 -4.328125 L 3.671875 -4.328125 L 3.671875 -3.9375 Z M 1.15625 -3.9375 "/></g></g></g></svg>